<svg xmlns="http://www.w3.org/2000/svg" xmlns:xlink="http://www.w3.org/1999/xlink" viewBox="0 0 1920 1080" width="1920" height="1080" style="width: 100%; height: 100%; transform: translate3d(0px, 0px, 0px); content-visibility: visible;" preserveAspectRatio="xMidYMid meet"><defs><clipPath id="__lottie_element_2"><rect width="1920" height="1080" x="0" y="0"></rect></clipPath><filter id="__lottie_element_8" x="-100%" y="-100%" width="300%" height="300%"><feGaussianBlur result="filter_result_0" stdDeviation="243.86999999999998 243.86999999999998" edgeMode="duplicate"></feGaussianBlur></filter><filter id="__lottie_element_11" x="-100%" y="-100%" width="300%" height="300%"><feGaussianBlur result="filter_result_0" stdDeviation="243.86999999999998 243.86999999999998" edgeMode="duplicate"></feGaussianBlur></filter></defs><g clip-path="url(#__lottie_element_2)"><g style="display: block;" transform="matrix(1,0,0,1,0,0)" opacity="1"><rect width="1920" height="1080" fill="#000000"></rect></g><g filter="url(#__lottie_element_8)" style="display: block;" transform="matrix(1.809999942779541,0,0,1.809999942779541,1933.63720703125,439.08953857421875)" opacity="0.46"><g opacity="1" transform="matrix(1,0,0,1,-645,-125)"><path fill="rgb(3,0,255)" fill-opacity="1" d=" M0,-381 C210.27389526367188,-381 381,-210.27389526367188 381,0 C381,210.27389526367188 210.27389526367188,381 0,381 C-210.27389526367188,381 -381,210.27389526367188 -381,0 C-381,-210.27389526367188 -210.27389526367188,-381 0,-381z"></path><path stroke-linecap="butt" stroke-linejoin="miter" fill-opacity="0" stroke-miterlimit="4" stroke="rgb(255,255,255)" stroke-opacity="1" stroke-width="2" d=" M0,-381 C210.27389526367188,-381 381,-210.27389526367188 381,0 C381,210.27389526367188 210.27389526367188,381 0,381 C-210.27389526367188,381 -381,210.27389526367188 -381,0 C-381,-210.27389526367188 -210.27389526367188,-381 0,-381z"></path></g></g><g filter="url(#__lottie_element_11)" style="display: block;" transform="matrix(1.809999942779541,0,0,1.809999942779541,2498.67431640625,1200.60302734375)" opacity="0.28"><g opacity="1" transform="matrix(1,0,0,1,-645,-125)"><path fill="rgb(255,207,0)" fill-opacity="1" d=" M0,-381 C210.27389526367188,-381 381,-210.27389526367188 381,0 C381,210.27389526367188 210.27389526367188,381 0,381 C-210.27389526367188,381 -381,210.27389526367188 -381,0 C-381,-210.27389526367188 -210.27389526367188,-381 0,-381z"></path><path stroke-linecap="butt" stroke-linejoin="miter" fill-opacity="0" stroke-miterlimit="4" stroke="rgb(255,255,255)" stroke-opacity="1" stroke-width="2" d=" M0,-381 C210.27389526367188,-381 381,-210.27389526367188 381,0 C381,210.27389526367188 210.27389526367188,381 0,381 C-210.27389526367188,381 -381,210.27389526367188 -381,0 C-381,-210.27389526367188 -210.27389526367188,-381 0,-381z"></path></g></g></g></svg>